# xmcd
#
# Track frame offsets:
#	182
#	21567
#	40830
#	64377
#	87867
#	108195
#	129450
#	155842
#	176810
#	206252
#	228405
#	250677
#	271462
#	291495
#
# Disc length: 4130 seconds
#
# Revision: 0
# Processed by: cddbd v1.5.2PL0 Copyright (c) Steve Scherf et al.
# Submitted via: EZCDAudioConverter 1.3.4.1
#
DISCID=cd10200e
DTITLE=Various Artist - Friends In High Places
DYEAR=1993
DGENRE=Gospel
TTITLE0=Helen Baylor - More Than a Friend
TTITLE1=Out Front - Angel
TTITLE2=Marquis Ubu - You Changed My Life 
TTITLE3=Chris Jasper - Thank You Jesus 
TTITLE4=Kenny Smith - Call Me
TTITLE5=Fred Hammond - Step By Step 
TTITLE6=Gary Taylor - One Love One People
TTITLE7=Dennis Austin - I'll Shine For You
TTITLE8=Futrel - Empty Promises
TTITLE9=Dawkins and Dawkins - God In You
TTITLE10=Redeemed - Will You Be Ready 
TTITLE11=Keith Thomas - It's Only Natural
TTITLE12=Vernessa Mitchell - Be For Real
TTITLE13=Billy and Sarah Gaines - Love's The Key
EXTD=
EXTT0=
EXTT1=
EXTT2=
EXTT3=
EXTT4=
EXTT5=
EXTT6=
EXTT7=
EXTT8=
EXTT9=
EXTT10=
EXTT11=
EXTT12=
EXTT13=
PLAYORDER=
